# xmcd
#
# Track frame offsets: 
#        150
#        11563
#        25056
#        35349
#        46172
#        57389
#        70069
#        82355
#        92584
#        105133
#        117493
#        132000
#        142899
#        156424
#        173907
#        187117
#        198414
#        212549
#        228754
#        240659
#        254290
#        271713
#        284436
#        296185
#        310013
#        323197
#        336682
#
# Disc length: 4621 seconds
#
# Revision: 3
# Processed by: cddbd v1.5.2PL0 Copyright (c) Steve Scherf et al.
# Submitted via: ExactAudioCopy v0.95b4
#
DISCID=86120b1b
DTITLE=John Lee Hooker - Boom Boom (Compilation)
DYEAR=2002
DGENRE=Blues
TTITLE0=Boom Boom
TTITLE1=Alberta
TTITLE2=Dimples
TTITLE3=Maudie
TTITLE4=Shake, Holler and Run
TTITLE5=Hobo Blues
TTITLE6=Crawling King Snake
TTITLE7=Want-ad Blues
TTITLE8=I'm in the Mood
TTITLE9=Whiskey and Wimmen
TTITLE10=Cool Little Car
TTITLE11=Gonna Boogie
TTITLE12=Ride Till I Die
TTITLE13=Wednesday Evening Blue
TTITLE14=Rock House Boogie
TTITLE15=No Shoes
TTITLE16=Half a Stranger
TTITLE17=My first wife left me
TTITLE18=I love you Honey
TTITLE19=Time is marching
TTITLE20=Blues before Sunrise
TTITLE21=She ain't good for nothin'
TTITLE22=Boogie Chillun
TTITLE23=Louise
TTITLE24=I'm so excited
TTITLE25=Love Blues
TTITLE26=Run on
EXTD=
EXTT0=
EXTT1=
EXTT2=
EXTT3=
EXTT4=
EXTT5=
EXTT6=
EXTT7=
EXTT8=
EXTT9=
EXTT10=
EXTT11=
EXTT12=
EXTT13=
EXTT14=
EXTT15=
EXTT16=
EXTT17=
EXTT18=
EXTT19=
EXTT20=
EXTT21=
EXTT22=
EXTT23=
EXTT24=
EXTT25=
EXTT26=
PLAYORDER=
